<svg width="187" height="193" fill="none" xmlns="http://www.w3.org/2000/svg"><path d="M82.899 86.346c-11.276 9.78-23.175 35.227-21.18 61.508 1.994 26.28 16.078 46.362 30.38 44.799 14.301-1.55 25.726-28.416 40.217-33.443 14.505-5.014 38.657-1.602 51.738-15.433 13.08-13.843-21.955-49.214-43.407-59.71-21.479-10.51-39.892-13.205-57.748 2.279ZM157.649 25.307c-9.933-1.992-19.621 7.488-21.71 21.11-2.09 13.622 4.22 26.216 14.138 28.208 9.919 1.993 19.716-7.37 21.805-20.993 2.09-13.622-4.301-26.332-14.233-28.325ZM63.55 85.303c9.362-8.764 6.31-26.645-7.354-39.525-13.487-12.983-31.805-16.343-40.937-7.54-9.132 8.804-5.699 26.333 7.68 39.2 13.582 12.736 31.29 16.617 40.611 7.865ZM30.985 101.921C18.081 96.426 4.187 99.707.808 108.537c-3.351 8.791 3.99 20.537 17.015 25.89 12.972 5.391 26.487 2.552 30.136-6.407 3.637-8.96-3.975-20.681-16.974-26.099ZM117.825 26.557C112.289 9.106 97.458-2.602 84.758.497c-12.7 3.1-18.508 19.77-13.053 37.13 5.658 17.229 19.797 29.184 32.388 26.306 12.592-2.891 18.915-19.678 13.732-37.376Z" fill="#E8DED9" fill-opacity=".2"/></svg>