<svg width="24" height="34" fill="none" xmlns="http://www.w3.org/2000/svg"><path d="M23.115 11.35c.004-1.834-.429-3.64-1.261-5.266a11.261 11.261 0 0 0-3.52-4.065 10.993 10.993 0 0 0-4.97-1.933 10.924 10.924 0 0 0-5.283.641 11.112 11.112 0 0 0-4.385 3.07A11.397 11.397 0 0 0 1.214 8.59a11.533 11.533 0 0 0-.012 5.42 11.4 11.4 0 0 0 2.461 4.806V30.46c0 .667.185 1.32.534 1.884a3.496 3.496 0 0 0 1.435 1.306 3.416 3.416 0 0 0 3.675-.427l2.26-1.84a.686.686 0 0 1 .867 0l2.259 1.84a3.417 3.417 0 0 0 3.675.427 3.496 3.496 0 0 0 1.435-1.306 3.588 3.588 0 0 0 .534-1.884V18.816a11.388 11.388 0 0 0 2.778-7.466ZM12 2.856c1.649 0 3.26.498 4.631 1.431a8.461 8.461 0 0 1 3.07 3.812 8.642 8.642 0 0 1 .475 4.908 8.544 8.544 0 0 1-2.281 4.349 8.29 8.29 0 0 1-4.269 2.324 8.194 8.194 0 0 1-4.816-.483 8.372 8.372 0 0 1-3.742-3.128 8.608 8.608 0 0 1-1.405-4.72 8.584 8.584 0 0 1 2.445-6.003A8.267 8.267 0 0 1 12 2.856Zm5.165 28.24a.672.672 0 0 1-.735-.086l-2.26-1.84a3.42 3.42 0 0 0-2.17-.78 3.42 3.42 0 0 0-2.17.78l-2.258 1.84a.688.688 0 0 1-1.022-.173.717.717 0 0 1-.108-.376v-9.318A10.87 10.87 0 0 0 12 22.675c1.953 0 3.87-.529 5.558-1.532v9.318a.7.7 0 0 1-.105.376.68.68 0 0 1-.288.258Z" fill="#fff"/></svg>