<svg width="40" height="36" fill="none" xmlns="http://www.w3.org/2000/svg"><path d="M19.738 29.087a.26.26 0 1 0 .522 0 .26.26 0 0 0-.522 0Z" stroke="#fff" stroke-width="2"/><path d="M35.742 22.435a3.696 3.696 0 1 1-7.392 0 3.696 3.696 0 0 1 7.392 0ZM11.87 35H1.816v-1.478c0-3.266 2.87-5.913 6.135-5.913 1.996 0 3.983.989 5.053 2.504M26.993 30.113c1.07-1.515 3.057-2.504 5.054-2.504 3.265 0 6.134 2.647 6.134 5.913V35H28.13M11.647 22.435a3.696 3.696 0 1 1-7.391 0 3.696 3.696 0 0 1 7.391 0ZM25.173 19.479a5.174 5.174 0 1 1-10.348 0 5.174 5.174 0 0 1 10.348 0ZM19.973 1.001l-1.599 3.27-3.574.518 2.587 2.521-.611 3.56 3.197-1.68 3.197 1.68-.611-3.56 2.587-2.52-3.575-.52-1.598-3.269ZM32.51 13.462l2.276 1.196-.434-2.534 1.84-1.795-2.544-.37-1.137-2.306-1.139 2.306-2.544.37 1.84 1.795-.434 2.534 2.277-1.196ZM7.381 13.462l2.276 1.196-.435-2.534 1.842-1.795-2.545-.37L7.38 7.653 6.243 9.96l-2.545.37 1.842 1.795-.435 2.534 2.276-1.196Z" stroke="#fff" stroke-width="2" stroke-miterlimit="10" stroke-linecap="round" stroke-linejoin="round"/><path d="M28.13 35H11.87v-.74A8.127 8.127 0 0 1 20 26.13c2.245 0 4.277.91 5.748 2.382a8.096 8.096 0 0 1 2.381 5.749V35Z" stroke="#fff" stroke-width="2" stroke-miterlimit="10" stroke-linecap="round" stroke-linejoin="round"/><path d="M22.832 29.934c.791.52 1.432 1.25 1.841 2.11" stroke="#fff" stroke-width="2" stroke-miterlimit="10" stroke-linecap="round" stroke-linejoin="round"/></svg>