<svg width="16" height="18" fill="none" xmlns="http://www.w3.org/2000/svg"><path d="M7.65 4.5c-.623 0-1.232.172-1.75.493a2.983 2.983 0 0 0-1.16 1.313 2.731 2.731 0 0 0-.18 1.69c.122.567.422 1.088.863 1.497.44.41 1.001.688 1.612.8a3.375 3.375 0 0 0 1.82-.166A3.111 3.111 0 0 0 10.27 9.05c.346-.481.531-1.046.531-1.625 0-.776-.332-1.52-.923-2.068A3.277 3.277 0 0 0 7.65 4.5Zm0 4.387c-.312 0-.616-.085-.875-.246-.259-.16-.46-.39-.58-.656a1.366 1.366 0 0 1-.09-.845c.061-.284.211-.545.431-.75.22-.204.501-.343.807-.4.305-.056.622-.027.91.084.288.11.534.298.707.538.173.241.265.524.265.813 0 .388-.166.76-.461 1.034a1.639 1.639 0 0 1-1.114.428Z" fill="#fff"/><path d="M7.65 18a4.056 4.056 0 0 1-1.843-.432A3.995 3.995 0 0 1 4.37 16.35C1.47 12.408 0 9.444 0 7.54c0-2 .806-3.917 2.24-5.331A7.707 7.707 0 0 1 7.65 0c2.029 0 3.975.794 5.41 2.209A7.487 7.487 0 0 1 15.3 7.54c0 1.903-1.47 4.867-4.37 8.81-.373.512-.866.93-1.437 1.217A4.056 4.056 0 0 1 7.65 18Zm0-16.363A6.042 6.042 0 0 0 3.416 3.37a5.87 5.87 0 0 0-1.757 4.173c0 1.507 1.44 4.295 4.055 7.849.222.301.513.546.85.716a2.42 2.42 0 0 0 3.022-.716c2.614-3.554 4.055-6.342 4.055-7.849a5.87 5.87 0 0 0-1.757-4.173A6.042 6.042 0 0 0 7.65 1.637Z" fill="#fff"/></svg>