<svg width="17" height="15" fill="none" xmlns="http://www.w3.org/2000/svg"><path d="M13.458 0H3.542c-.94.001-1.84.36-2.503 1A3.35 3.35 0 0 0 0 3.41v8.18A3.35 3.35 0 0 0 1.039 14c.664.64 1.564.999 2.503 1h9.916a3.617 3.617 0 0 0 2.503-1A3.35 3.35 0 0 0 17 11.59V3.41A3.35 3.35 0 0 0 15.961 1a3.617 3.617 0 0 0-2.503-1ZM3.542 1.364h9.916c.425 0 .839.123 1.19.353.35.229.622.554.78.933l-5.425 5.222c-.4.383-.94.598-1.503.598a2.173 2.173 0 0 1-1.503-.598L1.572 2.65c.158-.379.43-.704.78-.933.351-.23.766-.353 1.19-.353Zm9.916 12.272H3.542a2.168 2.168 0 0 1-1.503-.599 2.007 2.007 0 0 1-.622-1.446V4.43l4.578 4.405a3.618 3.618 0 0 0 2.505.997c.94 0 1.84-.358 2.505-.997l4.578-4.404v7.159c0 .542-.223 1.063-.622 1.446-.399.384-.94.6-1.503.6Z" fill="#fff"/></svg>