<svg width="38" height="34" fill="none" xmlns="http://www.w3.org/2000/svg"><path d="M25.411 18.186c-1.71-2.73-4.622-4.361-7.79-4.361s-6.08 1.63-7.79 4.361l-4.12 6.58a6.066 6.066 0 0 0-.913 3.647 6.032 6.032 0 0 0 1.39 3.486 5.796 5.796 0 0 0 3.148 1.948 5.693 5.693 0 0 0 3.662-.356l.076-.035a11.268 11.268 0 0 1 9.17.035 5.709 5.709 0 0 0 3.66.357 5.795 5.795 0 0 0 3.148-1.949 6.031 6.031 0 0 0 1.391-3.485 6.065 6.065 0 0 0-.912-3.648l-4.12-6.58Zm1.948 12.231c-1.048 1.254-2.743 1.65-4.22.987a13.441 13.441 0 0 0-11.036-.002l-.05.023c-1.464.634-3.135.232-4.171-1.008a3.765 3.765 0 0 1-.296-4.42l4.12-6.58c1.299-2.074 3.51-3.312 5.915-3.312 2.405 0 4.616 1.238 5.915 3.312l4.12 6.58c.87 1.39.75 3.166-.297 4.42ZM6.82 18.177c1.226-.481 2.157-1.493 2.623-2.847.442-1.289.406-2.744-.103-4.097-.51-1.352-1.435-2.457-2.607-3.11-1.232-.685-2.585-.796-3.809-.313-2.462.969-3.592 4.083-2.518 6.944.857 2.277 2.858 3.715 4.88 3.715.524 0 1.045-.098 1.534-.292Zm-4.335-4.242c-.633-1.686-.077-3.479 1.24-3.997.237-.094.49-.141.745-.14.396 0 .805.11 1.199.33.708.393 1.273 1.077 1.592 1.925.319.847.347 1.742.08 2.52-.245.713-.714 1.237-1.32 1.476-1.316.52-2.902-.43-3.536-2.114Zm12.33-.913c3.078 0 5.582-2.92 5.582-6.51S17.893 0 14.815 0c-3.077 0-5.581 2.921-5.581 6.512 0 3.59 2.504 6.51 5.581 6.51Zm0-10.742c1.85 0 3.354 1.899 3.354 4.232 0 2.332-1.505 4.23-3.354 4.23-1.85 0-3.354-1.898-3.354-4.23 0-2.333 1.505-4.232 3.354-4.232Zm9.64 12.342c.464.157.949.238 1.437.237 2.245 0 4.432-1.672 5.267-4.242.48-1.48.449-3.044-.09-4.405-.562-1.425-1.605-2.459-2.937-2.912-1.332-.453-2.773-.264-4.057.532-1.227.76-2.167 1.994-2.647 3.473-1.013 3.122.345 6.404 3.027 7.317Zm-.913-6.598c.313-.966.912-1.762 1.687-2.242.716-.444 1.498-.557 2.2-.318.703.239 1.262.808 1.576 1.603.34.859.354 1.864.04 2.83-.626 1.928-2.37 3.077-3.888 2.56-1.516-.516-2.24-2.504-1.615-4.433Zm12.667 5.838v-.001c-2.123-1.605-5.297-.91-7.077 1.552-1.778 2.462-1.5 5.772.62 7.378a4.296 4.296 0 0 0 2.62.867c1.63 0 3.324-.852 4.457-2.417 1.778-2.462 1.5-5.772-.62-7.38Zm-1.17 6.022c-1.052 1.453-2.828 1.934-3.962 1.075-1.133-.859-1.202-2.739-.154-4.19.696-.964 1.714-1.5 2.652-1.5.474 0 .928.137 1.31.426 1.132.86 1.2 2.739.153 4.19Z" fill="#fff"/></svg>