<svg width="18" height="18" fill="none" xmlns="http://www.w3.org/2000/svg"><path d="M9.737.752a.751.751 0 0 1 .75-.75A7.52 7.52 0 0 1 18 7.513a.751.751 0 1 1-1.502 0 6.017 6.017 0 0 0-6.01-6.01.751.751 0 0 1-.751-.752Zm.75 3.757a3.005 3.005 0 0 1 3.006 3.005.751.751 0 1 0 1.502 0 4.512 4.512 0 0 0-4.507-4.508.751.751 0 1 0 0 1.503Zm6.832 8.067a2.329 2.329 0 0 1 0 3.289l-.684.788C10.482 22.543-4.489 7.575 1.31 1.403l.864-.751a2.315 2.315 0 0 1 3.25.03C5.449.705 6.84 2.513 6.84 2.513a2.329 2.329 0 0 1-.005 3.217l-.87 1.094a9.602 9.602 0 0 0 5.206 5.217l1.1-.875a2.329 2.329 0 0 1 3.217-.005s1.807 1.392 1.83 1.415Zm-1.034 1.092s-1.798-1.383-1.821-1.406a.826.826 0 0 0-1.164 0c-.02.021-1.535 1.228-1.535 1.228a.752.752 0 0 1-.736.114 11.275 11.275 0 0 1-6.626-6.616.751.751 0 0 1 .109-.752S5.719 4.72 5.739 4.701a.826.826 0 0 0 0-1.164c-.023-.022-1.406-1.821-1.406-1.821a.826.826 0 0 0-1.134.029l-.864.751c-4.239 5.096 8.736 17.351 13.202 13.13l.684-.788a.842.842 0 0 0 .064-1.17Z" fill="#fff"/></svg>