<svg width="28" height="36" fill="none" xmlns="http://www.w3.org/2000/svg"><path d="M11.178 26.394H8.356a7.054 7.054 0 0 0-7.054 7.054V35h25.394v-1.552a7.054 7.054 0 0 0-7.054-7.054h-2.821M21.759 15.108a7.76 7.76 0 1 0-15.52 0" stroke="#fff" stroke-width="2" stroke-miterlimit="10" stroke-linecap="round" stroke-linejoin="round"/><path d="M6.24 15.108a7.742 7.742 0 0 0 3.609 6.549 2.831 2.831 0 0 1 1.329 2.388v2.35a2.822 2.822 0 0 0 5.643 0v-2.35c0-.973.507-1.867 1.328-2.388a7.742 7.742 0 0 0 3.61-6.55" stroke="#fff" stroke-width="2" stroke-miterlimit="10" stroke-linecap="round" stroke-linejoin="round"/><path d="M11.178 24.278v2.116a2.822 2.822 0 0 0 5.643 0v-2.116h-5.643ZM14 3.116V1M8.003 4.723 6.945 2.89M3.614 9.112 1.781 8.054M24.384 9.112l1.833-1.058M19.995 4.723l1.058-1.833M14 24.278v-7.054M16.116 15.108l-2.117 2.116-2.116-2.116" stroke="#fff" stroke-width="2" stroke-miterlimit="10" stroke-linecap="round" stroke-linejoin="round"/></svg>