<svg width="23" height="25" fill="none" xmlns="http://www.w3.org/2000/svg"><path d="M20.608 3.967a18.4 18.4 0 0 1-2.207-.588c-.344-.11-.73-.225-1.174-.357a30.31 30.31 0 0 1-4.826-1.89 1.883 1.883 0 0 0-1.674 0A30.36 30.36 0 0 1 5.9 3.022c-.445.132-.83.251-1.175.357a18.4 18.4 0 0 1-2.207.588c-.436.08-.83.313-1.114.656a1.906 1.906 0 0 0-.435 1.22v5.086c0 2.287.61 4.532 1.764 6.502a12.798 12.798 0 0 0 4.803 4.707l3.103 1.732a1.884 1.884 0 0 0 1.847 0l3.104-1.732a12.797 12.797 0 0 0 4.804-4.707 12.866 12.866 0 0 0 1.764-6.502V5.844a1.906 1.906 0 0 0-.436-1.221 1.891 1.891 0 0 0-1.114-.656Z" fill="#26DE81"/><path d="M10.476 14.446a.807.807 0 0 1-.575-.24l-2.174-2.182a.82.82 0 0 1 .582-1.377.813.813 0 0 1 .57.22l1.598 1.603 3.77-3.785a.813.813 0 0 1 1.37.584.82.82 0 0 1-.218.572l-4.346 4.365a.809.809 0 0 1-.577.24Z" fill="#fff"/></svg>