<svg width="23" height="22" fill="none" xmlns="http://www.w3.org/2000/svg"><path d="M10.889 9.66c-1.75.617-4.349 2.953-5.433 5.962-1.085 3.01-.507 5.835 1.172 6.257 1.678.425 4.294-2.09 6.167-2.043 1.872.047 4.406 1.438 6.56.444 2.154-.995-.009-6.398-1.889-8.463-1.878-2.066-3.806-3.136-6.577-2.157ZM22.296 5.986c-1.012-.636-2.569.014-3.482 1.443-.911 1.428-.832 3.096.18 3.731 1.013.635 2.574.001 3.485-1.427.915-1.427.83-3.11-.183-3.747ZM8.776 8.733C10.26 8.148 10.81 6.03 9.92 4.027c-.864-2.01-2.747-3.15-4.208-2.55-1.46.598-1.95 2.693-1.091 4.685.885 1.985 2.674 3.156 4.155 2.571ZM4.302 9.223C3.129 8.071 1.41 7.858.594 8.697c-.811.84-.575 2.454.617 3.594 1.184 1.142 2.838 1.392 3.692.546.853-.844.583-2.467-.601-3.614ZM17.774 4.46c.25-2.173-.828-4.097-2.407-4.283-1.575-.184-3.055 1.428-3.308 3.589-.223 2.155.763 4.076 2.316 4.283 1.557.204 3.099-1.401 3.399-3.588Z" fill="#FF5B2E"/></svg>